<?xml version="1.0" encoding="UTF-8"?><svg id="Layer_1" xmlns="http://www.w3.org/2000/svg" viewBox="0 0 432.3 229.41"><path d="M135.9,34.74c36.65-3.44,73.16,23.66,78.38,60.44,3.11,21.87-3.41,47.49-20.58,62.36-3.28,2.84-11.42,7.35-13.14,10.73-.43.85-1.39,3.57-1.5,4.46-.64,4.94-.26,14.46-.02,19.71.1,2.11.86,3.98.65,6.56-.34,4.26-.75,10.11-1.92,14.18-1.92,6.65-9.88,14.43-16.9,15.32-10.03,1.28-25.12,1.11-35.22,0-5.37-.59-12.31-5.37-15.14-9.92-6.78-10.88-2.42-32.33-3.64-45.28-.65-6.99-6.57-8.92-11.08-12.79-27.26-23.34-32.7-64.6-12.51-94.26,11.6-17.05,31.98-29.58,52.63-31.51ZM99.68,110.99h25.67c1.06-4.6,3.51-8.93,4.77-13.44.24-.87-.4-1.04,1.19-.88l8.66,26.25,13.13-34,8.63,21.8,23.89.85c.84-1.74.42-3.33.61-5.05.15-1.39.84-2.25.6-4.18-.65-5.17-1.76-10.9-5.09-15.19-3.44-4.43-8.87-6.79-14.27-7.79l-2.8,5.9c-1.32.5-2.71,1.15-4.12.4-2.47-2.18-4.46-5.23-5.25-8.47-.11-.47-.65-3.77-.62-3.97.05-.34,1.05-3.2,1.17-3.32.08-.07,1.71-.64,2.02-.68,1.43-.17,3.38.66,4.7,1.29,1.61.77,3.57,2.71,4.96,3.4,2.65,1.32,7.07,1.45,10.17,2.96,12.18,5.91,15.36,21.01,13.31,33.23-2.54,15.12-13.16,31.7-23.26,42.97-5.55,6.18-12.85,10.34-18.83,15.78-.74.68-1.77,1.81-1.99,2.79s-.31,5.61-.07,6.45c.08.29.62.61.87.88,3.22-1.18,7.26-.34,10.78-.54,1-.06,1.64-.56,2.36-.62,2.3-.21,4.51.16,6.86-.61-.26-3.49.35-6.73,1.68-9.95,2.89-6.99,9.45-10.79,14.76-15.68,21.36-19.68,26.11-51.66,10.94-76.59-28.79-47.31-101.9-33.99-111.53,20.79-3.92,22.28,2.87,40.59,19.38,55.79,4.77,4.4,12.28,8.6,13.94,15.3l1.32,10.32c3.8,1.5,7.69.95,11.62,1.21.69.04,1.36.57,2.36.62,2.28.12,4.61-.14,6.89-.02l-.06-7.39c-.79-.96-1.69-1.93-2.61-2.76-3.59-3.26-8.35-6.27-11.97-9.51-16.69-14.94-35.09-42.37-29.42-65.83,1.7-7.03,6.86-14.05,13.6-16.83,2.98-1.23,6.79-1.59,9.56-2.98,3.15-1.57,5.5-6.08,9.8-5,.54.36,1.26.9,1.47,1.51.12.35.7,2.71.7,2.9,0,.35-.58,3.47-.72,4.07-.71,3.06-2.22,6.44-4.65,8.47h-3.63s-2.67-6.29-2.67-6.29c-6.34,1.19-11.1,3.02-14.9,8.37-4.84,6.83-5.34,15.22-3.89,23.25ZM159.97,113.37l-6.86-18.49-13.13,34.6-8.65-26.25c-1.58-.16-.95,0-1.2.87-.66,2.31-2.06,6.1-3.06,8.29-.19.42-.47.69-.82.97h-25.96c1.58,5.19,3.96,10.43,6.65,15.13,3.49,6.1,8.96,13.4,13.63,18.59,6.33,7.04,13.76,13.85,21.88,18.73.49.08,3.7-1.61,4.39-2.05,1.53-.98,4.27-3.2,5.69-4.45,12.81-11.21,27.45-28.63,32.51-45.06.49-1.6-1.15,0-1.48-.89h-23.58ZM167.13,188.54h-48.94v6.56h48.94v-6.56ZM167.13,206.44h-48.94c.36,4.56,2.46,8.53,6.98,10.03,5.84,1.95,20.85,1.75,27.37,1.33,1.51-.1,4.33-.47,5.84-.73,5.27-.91,9.41-5.07,8.76-10.63Z"/><path d="M207.42,182.57l.85.94,3.63,21.73,1.17-.9,6.01-21.75,13.14.26,6.84,23.59,4.48-23.86h13.13l-9.88,44.76c-3.94-.42-8.71.5-12.52,0-.52-.07-.87-.12-1.2-.59l-7.14-26.27-7.46,26.84h-14.32s-9.55-44.74-9.55-44.74h12.83Z"/><path d="M76.1,182.57c.13.02.32.45.69.51,1.99.3,4.49.46,6.17,1.59,7.6,5.12,6.81,16.46-.6,21.46-1.27.86-3.07.67-3.57,2.09l2.38.91c4.79,5.18,7.4,12.03,10.75,18.19h-15.82l-8.94-16.12c-1.51-1.03-3.19-2.05-5.08-1.78v17.9h-14.33v-44.74h28.35ZM62.08,200.47c5.57.34,15.36.57,10.77-7.48-.63.03-2-.87-2.11-.87h-8.65v8.35Z"/><path d="M0,227.32v-44.74h24.17c.15,0,2.26.55,2.88.71,7.63,1.86,12.94,9.18,13.56,16.87.93,11.38-.82,23.38-13.56,26.46-1.01.24-2.15-.18-2.88.71H0ZM13.73,193.31v23.86c2.4-1.33,5.38-.12,7.97-.69,1.79-.39,4.1-3.33,4.48-5.07.87-4,.84-8.33-.02-12.34-.46-2.15-1.89-4.24-3.89-5.07-2.75-1.14-5.63-.6-8.55-.7Z"/><path d="M430.95,195.7l-13.11.58c-.24-.89-.47-2.23-.91-2.97-2.06-3.47-8.98-3.98-10.42.37-.14.78,1.47,2.18,2.16,2.52,2.52,1.25,7.54,1.72,10.52,2.61,4.44,1.34,8.67,3.14,11.46,7.04,2.22,3.1,2.13,10.67.23,13.93-1.65,2.82-4.62,5.42-7.67,6.65-5.33,2.15-16.33,2.21-21.68.16s-9.76-8.39-9.37-14.19l13.13-1.2c.12,7.7,10.13,11.27,13.67,3.79.05-.28-.62-2.26-.83-2.6-1.37-2.24-12.56-4.22-15.84-5.64-3.23-1.4-7.19-4.41-8.25-7.86-.14-.46-.75-3.72-.72-4.07.08-1.08,1.31-4.92,1.9-5.9,5.06-8.53,23.13-8.88,30.58-3.88,3.1,2.08,5.28,6.97,5.15,10.66Z"/><path d="M305.01,227.32h-14.03l-2.7-7.14h-15.49s-1.8,7.14-1.8,7.14h-14.33l16.4-44.16,1.19-.6c4.13.44,9.18-.54,13.17,0,1.57.21,2.37,3.25,2.98,4.77,4.94,12.35,9.85,25.62,14.35,38.16.23.64.36,1.14.26,1.83ZM285.31,210.02l-4.48-14.32-2.56,6.99-1.92,7.33h8.95Z"/><polygon points="388.57 182.57 388.57 193.91 374.84 193.91 374.84 227.32 360.52 227.32 360.52 193.91 346.19 193.91 346.19 183.47 347.09 182.57 388.57 182.57"/><polygon points="343.81 182.57 343.81 193.91 330.08 193.91 330.08 227.32 315.75 227.32 315.75 193.91 302.32 193.91 301.43 193.01 301.43 183.47 302.32 182.57 343.81 182.57"/><path d="M36.2,97.95h19.52c1.13.68,2.98,1.16,3.68,2.29,2.11,3.43-.28,7.83-4.18,8.37-5.68.79-13.14-.52-19.02-.1l-3.69-2.88c-1.14-3.41.48-6.4,3.69-7.68Z"/><path d="M230.19,97.95h19.52s3.9,3.26,3.9,3.26v4.05c-1.1,1.34-2.61,3.11-4.4,3.35-2.84.39-16.5.46-19.02-.1-5.69-1.25-5.71-9.13,0-10.56Z"/><path d="M180.94,35.74c-.58-.56-1.65-3.92-1.2-4.9l9.77-17.08c3.83-3.89,9.55-1.66,9.77,3.76l-10.37,18.31c-.68.73-3.27,1.61-4.19,1.6-.48,0-3.47-1.38-3.79-1.69Z"/><path d="M47.85,46.66c.12-.12,2.28-1.27,2.57-1.31.99-.15,2.36-.06,3.33.29l16.38,11.67c1.32,1.97,1.33,4.59,0,6.55-2.22,3.27-5.8,2.05-8.64.3-4.54-2.81-8.54-6.77-13.13-9.55-1.67-1.19-2.32-3.97-1.73-5.88.04-.11,1.14-1.98,1.22-2.06Z"/><path d="M232.58,45.46c5.52-1.21,8.55,3.61,5.87,8.25l-16.18,11.87c-5.91,1.3-9.56-3.51-6.22-8.6l16.53-11.52Z"/><path d="M92.22,11.55c1.12.01,3.45,1.22,4.16,2.22l9.78,17.07c.3,2.41-.45,4.97-2.88,5.91-2.92,1.12-4.63.56-6.6-1.8-3.59-4.29-5.99-11.12-9.27-15.8l-.29-3.92c.25-1.81,3.32-3.7,5.09-3.67Z"/><path d="M146.75,1.31c.1.1,1.26,2.31,1.3,2.58.59,4.14-.27,9.93-.04,14.36.07,1.46.84,2.4.62,4.16-.84,6.7-8.77,7.82-10.75,1.2.62-6.14-.81-13.76,0-19.7.37-2.72,3.64-4.36,6.19-3.78.27.06,2.58,1.09,2.69,1.19Z"/></svg>